<svg width="60" height="60" viewBox="0 0 60 60" fill="none" xmlns="http://www.w3.org/2000/svg">
<g opacity="0.5" clip-path="url(#clip0_365_1154)">
<path d="M-1.17898 39V21.5455H6.03125C7.33807 21.5455 8.46591 21.7812 9.41477 22.2528C10.3693 22.7187 11.1051 23.3892 11.6222 24.2642C12.1392 25.1335 12.3977 26.1648 12.3977 27.358C12.3977 28.5682 12.1335 29.5966 11.6051 30.4432C11.0767 31.2841 10.3267 31.9261 9.35511 32.3693C8.38352 32.8068 7.23295 33.0256 5.90341 33.0256H1.34375V29.7017H5.11932C5.75568 29.7017 6.28693 29.6193 6.71307 29.4545C7.14489 29.2841 7.47159 29.0284 7.69318 28.6875C7.91477 28.3409 8.02557 27.8977 8.02557 27.358C8.02557 26.8182 7.91477 26.3722 7.69318 26.0199C7.47159 25.6619 7.14489 25.3949 6.71307 25.2188C6.28125 25.0369 5.75 24.946 5.11932 24.946H3.03977V39H-1.17898ZM8.64773 31.0227L12.9943 39H8.39205L4.13068 31.0227H8.64773ZM14.7116 39V21.5455H26.8821V24.9716H18.9304V28.5511H26.2599V31.9858H18.9304V35.5739H26.8821V39H14.7116ZM44.3793 21.5455V39H40.7997L33.8537 28.9261H33.7429V39H29.5241V21.5455H33.1548L40.0241 31.6023H40.169V21.5455H44.3793ZM46.4609 24.9716V21.5455H61.2138V24.9716H55.9212V39H51.7621V24.9716H46.4609Z" fill="white"/>
</g>
<defs>
<clipPath id="clip0_365_1154">
<rect width="60" height="60" fill="white"/>
</clipPath>
</defs>
</svg>
