<svg width="60" height="60" viewBox="0 0 60 60" fill="none" xmlns="http://www.w3.org/2000/svg">
<g opacity="0.2" clip-path="url(#clip0_365_4510)">
<path d="M19.9878 0C21.6527 1.67086 23.313 3.30609 24.9408 4.90828C26.6082 6.54949 28.3199 8.23605 30.011 9.93563L40.0325 0H19.9878Z" fill="#161616"/>
<path d="M0 18.5324V39.9537C1.65844 38.7952 3.30363 37.635 4.91812 36.4961C8.26863 34.1324 11.7154 31.7009 15.293 29.2767V29.2433L0 18.5324Z" fill="#161616"/>
<path d="M1.50293 15.293L15.2929 24.9511V15.293H1.50293Z" fill="#161616"/>
<path d="M6.94477 39.3687C4.6759 40.9692 2.34727 42.6116 0 44.236V44.2403L15.293 54.9511V33.5339C12.439 35.494 9.65918 37.4537 6.94477 39.3687Z" fill="#161616"/>
<path d="M52.4746 7.41387C50.0449 5.0223 47.5433 2.56008 45.0505 0H45.0258L33.1465 11.7773H56.8828C55.4107 10.3051 53.9256 8.84203 52.4746 7.41387Z" fill="#161616"/>
<path d="M22.4749 7.41387C20.0453 5.0223 17.5437 2.56008 15.0509 0H15.0262L3.14697 11.7773H26.8832C25.4111 10.3051 23.926 8.84203 22.4749 7.41387Z" fill="#161616"/>
<path d="M0 48.5324V60H15.293V59.2432L0 48.5324Z" fill="#161616"/>
<path d="M44.707 15.293V24.9237L58.4578 15.293H44.707Z" fill="#161616"/>
<path d="M49.9878 0C51.6527 1.67086 53.313 3.30609 54.9408 4.90828C56.6045 6.54586 58.3124 8.22867 59.9998 9.92449V0H49.9878Z" fill="#161616"/>
<path d="M44.707 59.2158V60H60V48.5049L44.707 59.2158Z" fill="#161616"/>
<path d="M0 0V9.94664L10.0327 0H0Z" fill="#161616"/>
<path d="M44.707 29.2158V29.3032C48.2708 31.7188 51.7052 34.1414 55.0438 36.4966C56.6706 37.6442 58.3287 38.8135 60 39.9808V18.5049L44.707 29.2158Z" fill="#161616"/>
<path d="M53.0171 39.3694C50.3148 37.463 47.5477 35.5121 44.707 33.5607V54.9238L59.964 44.238C57.6161 42.6133 55.2867 40.9704 53.0171 39.3694Z" fill="#161616"/>
</g>
<defs>
<clipPath id="clip0_365_4510">
<rect width="60" height="60" fill="white"/>
</clipPath>
</defs>
</svg>
