<svg width="60" height="60" viewBox="0 0 60 60" fill="none" xmlns="http://www.w3.org/2000/svg">
<g opacity="0.5">
<path d="M56.4844 45.8203H3.51562C1.57395 45.8203 0 47.3943 0 49.3359C0 51.2774 1.57395 52.8516 3.51562 52.8516H56.4844C58.4261 52.8516 60 51.2774 60 49.3359C60 47.3943 58.4261 45.8203 56.4844 45.8203Z" fill="white"/>
<path d="M45.8203 15.9736V22.9688C45.8203 23.9404 45.0341 24.7266 44.0625 24.7266C43.0909 24.7266 42.3047 23.9404 42.3047 22.9688V13.7194C41.1807 13.1248 40.0018 12.6257 38.7891 12.1963V26.4844C38.7891 27.456 38.0029 28.2422 37.0312 28.2422C36.0596 28.2422 35.2734 27.456 35.2734 26.4844V8.90625C35.2734 7.93641 34.4855 7.14844 33.5156 7.14844H26.4844C25.5145 7.14844 24.7266 7.93641 24.7266 8.90625V26.4844C24.7266 27.456 23.9404 28.2422 22.9688 28.2422C21.9971 28.2422 21.2109 27.456 21.2109 26.4844V12.1964C19.9982 12.6258 18.8193 13.1249 17.6953 13.7195V22.9688C17.6953 23.9404 16.9091 24.7266 15.9375 24.7266C14.9659 24.7266 14.1797 23.9404 14.1797 22.9688V15.9736C7.78594 20.7848 3.63281 28.4132 3.63281 37.0312V42.3047H56.3672V37.0312C56.3672 28.4132 52.2141 20.7848 45.8203 15.9736Z" fill="white"/>
</g>
</svg>
