<svg width="60" height="60" viewBox="0 0 60 60" fill="none" xmlns="http://www.w3.org/2000/svg">
<g opacity="0.4" clip-path="url(#clip0_365_953)">
<path d="M51.6089 50.9981L49.3361 53.2709V42.4557H45.8205V53.2709L43.5477 50.9981L41.062 53.4837L47.5783 60L54.0945 53.4837L51.6089 50.9981Z" fill="white"/>
<path d="M28.2423 42.4557V53.2709L25.9695 50.9981L23.4839 53.4837L30.0002 60L36.5164 53.4837L34.0308 50.9981L31.758 53.2709V42.4557H28.2423Z" fill="white"/>
<path d="M10.6642 42.4557V53.2709L8.39142 50.9981L5.90576 53.4837L12.422 60L18.9383 53.4837L16.4526 50.9981L14.1798 53.2709V42.4557H10.6642Z" fill="white"/>
<path d="M22.3833 11.5498C21.6161 12.8801 21.2109 14.3976 21.2109 15.9375C21.2109 20.7834 25.1541 24.7266 30 24.7266C34.8459 24.7266 38.7891 20.7834 38.7891 15.9375C38.7891 14.3944 38.3839 12.8769 37.5563 11.4519L30 0L22.3833 11.5498Z" fill="white"/>
<path d="M49.3359 24.7265C53.2137 24.7265 56.3672 21.573 56.3672 17.6953C56.3672 16.6415 56.1388 15.6285 55.6425 14.588L49.3359 3.03998L42.9808 14.6841C42.5331 15.6285 42.3047 16.6415 42.3047 17.6953C42.3047 21.573 45.4582 24.7265 49.3359 24.7265Z" fill="white"/>
<path d="M4.30893 14.6846C3.86124 15.6285 3.63281 16.6415 3.63281 17.6953C3.63281 21.573 6.78635 24.7265 10.6641 24.7265C14.5418 24.7265 17.6953 21.573 17.6953 17.6953C17.6953 16.6415 17.4669 15.6285 16.9707 14.588L10.6641 3.03998L4.30893 14.6846Z" fill="white"/>
<path d="M49.3359 31.7578H45.8203V28.2422H35.2734V31.7578H31.7578V28.2422H21.2109V31.7578H17.6953V28.2422H0V38.7891H10.6641V35.2734H14.1797V38.7891H24.7266V35.2734H28.2422V38.7891H38.7891V35.2734H42.3047V38.7891H60V28.2422H49.3359V31.7578Z" fill="white"/>
</g>
<defs>
<clipPath id="clip0_365_953">
<rect width="60" height="60" fill="white"/>
</clipPath>
</defs>
</svg>
