<svg width="21" height="21" viewBox="0 0 21 21" fill="none" xmlns="http://www.w3.org/2000/svg">
<path d="M3.14502 4.66667C3.14502 3.74619 3.89121 3 4.81169 3H7.54439C7.90308 3 8.22153 3.22953 8.33496 3.56981L9.58313 7.31434C9.71428 7.70777 9.53617 8.13776 9.16524 8.32322L7.28419 9.26375C8.20273 11.301 9.844 12.9423 11.8813 13.8608L12.8218 11.9798C13.0073 11.6088 13.4372 11.4307 13.8307 11.5619L17.5752 12.8101C17.9155 12.9235 18.145 13.2419 18.145 13.6006V16.3333C18.145 17.2538 17.3988 18 16.4784 18H15.645C8.74146 18 3.14502 12.4036 3.14502 5.5V4.66667Z" stroke="#FF7A00" stroke-width="2" stroke-linecap="round" stroke-linejoin="round"/>
</svg>
