<svg width="30" height="30" viewBox="0 0 30 30" fill="none" xmlns="http://www.w3.org/2000/svg">
<path fill-rule="evenodd" clip-rule="evenodd" d="M15.1531 0.000129768C13.9631 -0.0120112 13.1043 0.829972 12.3452 1.59795C11.5861 2.36593 10.8648 3.1252 10.3122 3.34752C9.75955 3.56985 8.71323 3.52165 7.63379 3.49332C6.55435 3.46499 5.35185 3.45236 4.50177 4.28525C3.65171 5.11815 3.63981 6.32065 3.6461 7.40044C3.65239 8.48024 3.67915 9.52729 3.4456 10.0753C3.21204 10.6232 2.43825 11.329 1.65494 12.0723C0.871642 12.8155 0.0123111 13.6568 0.000129767 14.8469C-0.0120111 16.0369 0.829975 16.8956 1.59795 17.6547C2.36593 18.4138 3.1252 19.1352 3.34752 19.6878C3.56984 20.2405 3.52176 21.2868 3.49344 22.3662C3.46511 23.4457 3.45236 24.6483 4.28525 25.4983C5.11815 26.3484 6.32077 26.3602 7.40056 26.3539C8.48035 26.3476 9.52729 26.3208 10.0753 26.5544C10.6232 26.788 11.329 27.5619 12.0723 28.3452C12.8155 29.1285 13.6569 29.9877 14.8469 29.9999C16.0369 30.012 16.8957 29.17 17.6548 28.402C18.4139 27.6341 19.1352 26.8748 19.6878 26.6525C20.2405 26.4302 21.2868 26.4784 22.3662 26.5067C23.4456 26.535 24.6482 26.5478 25.4982 25.7149C26.3483 24.882 26.3602 23.6794 26.3539 22.5996C26.3476 21.5198 26.3208 20.4726 26.5544 19.9246C26.788 19.3766 27.5618 18.671 28.3451 17.9277C29.1284 17.1845 29.9877 16.3431 29.9999 15.1531C29.9999 15.1531 29.9999 15.153 29.9999 15.153C30.012 13.963 29.17 13.1043 28.402 12.3452C27.6341 11.5861 26.8748 10.8647 26.6525 10.312C26.4302 9.75943 26.4782 8.71323 26.5066 7.63379C26.5349 6.55434 26.5476 5.35173 25.7147 4.50166C24.8819 3.6516 23.6792 3.63981 22.5994 3.6461C21.5196 3.65239 20.4727 3.67916 19.9247 3.4456C19.3768 3.21204 18.671 2.43825 17.9277 1.65494C17.1845 0.871639 16.3431 0.0123111 15.1531 0.000129768ZM14.9994 5.7422C20.1046 5.7422 24.257 9.8946 24.257 14.9998C24.257 20.1049 20.1046 24.2573 14.9994 24.2573C9.89427 24.2573 5.74185 20.1049 5.74185 14.9998C5.74185 9.8946 9.89427 5.7422 14.9994 5.7422Z" fill="#FF7A00"/>
<path fill-rule="evenodd" clip-rule="evenodd" d="M14.9995 8.61316C14.5122 8.61315 14.1029 8.89349 13.8489 9.19395C13.5948 9.49441 13.4299 9.83072 13.2764 10.1595C12.9695 10.817 12.6514 11.4375 12.4942 11.5517C12.3371 11.6659 11.6487 11.7767 10.9285 11.8653C10.5684 11.9097 10.1976 11.9627 9.83338 12.1114C9.46912 12.2601 9.07597 12.5628 8.92541 13.0261C8.77484 13.4895 8.91499 13.9654 9.12224 14.2999C9.3295 14.6343 9.59834 14.8952 9.86359 15.1427C10.3941 15.6378 10.8858 16.132 10.9459 16.3168C11.0059 16.5015 10.8986 17.1905 10.7603 17.9028C10.6912 18.259 10.6271 18.628 10.656 19.0204C10.6849 19.4128 10.8512 19.8803 11.2453 20.1667C11.6395 20.4531 12.1355 20.4668 12.5176 20.373C12.8997 20.2793 13.2308 20.1042 13.5482 19.9284C14.183 19.5769 14.805 19.2619 14.9993 19.2619C15.1936 19.2619 15.8157 19.577 16.4505 19.9285C16.7678 20.1043 17.0989 20.2793 17.481 20.3731C17.8631 20.4669 18.3591 20.4532 18.7532 20.1668C19.1474 19.8804 19.3138 19.4131 19.3427 19.0207C19.3716 18.6283 19.3074 18.2592 19.2383 17.903C19.1002 17.1907 18.9928 16.5018 19.0528 16.317C19.1129 16.1322 19.6047 15.6379 20.1352 15.1428C20.4005 14.8953 20.6694 14.6345 20.8767 14.3001C21.0839 13.9656 21.2241 13.4897 21.0735 13.0264C20.923 12.563 20.5298 12.2604 20.1655 12.1116C19.8013 11.9629 19.4306 11.9098 19.0705 11.8655C18.3503 11.7767 17.6619 11.666 17.5047 11.5518C17.3475 11.4376 17.0295 10.8171 16.7226 10.1596C16.5691 9.83083 16.4042 9.49453 16.1502 9.19406C15.8961 8.89359 15.4868 8.61317 14.9996 8.61316H14.9995Z" fill="#FF7A00"/>
</svg>
