<svg width="30" height="30" viewBox="0 0 30 30" fill="none" xmlns="http://www.w3.org/2000/svg">
<path fill-rule="evenodd" clip-rule="evenodd" d="M15.9394 0.740752C13.3274 5.09746 8.24032 13.5823 6.22693 16.9403C5.94288 17.4141 5.92401 18.0145 6.17865 18.5067C6.44495 19.0216 6.95939 19.3336 7.51279 19.3336L10.2745 19.3334C10.3295 19.3334 10.3809 19.3597 10.4198 19.401C10.4721 19.4564 10.4989 19.5327 10.4989 19.6111L10.4987 28.4327C10.4987 29.132 10.9463 29.7384 11.5788 29.9339C12.2304 30.1353 12.9335 29.867 13.2979 29.2593L23.0103 13.0601C23.2943 12.5863 23.3132 11.9859 23.0586 11.4936C22.7923 10.9787 22.2778 10.6667 21.7244 10.6668L18.963 10.667C18.908 10.667 18.8566 10.6407 18.8177 10.5993C18.7655 10.5439 18.7386 10.4677 18.7386 10.3892V1.56731C18.7386 0.868014 18.2911 0.261647 17.6585 0.0661261C17.0069 -0.135313 16.3038 0.133038 15.9394 0.740811V0.740752ZM14.0425 11.5215L12.4451 14.7114C12.345 14.9112 12.3556 15.1486 12.4731 15.3387C12.5904 15.5288 12.7979 15.6446 13.0214 15.6446H15.1721L14.0424 17.9018C13.8832 18.2199 14.0123 18.6074 14.3304 18.7666C14.6485 18.9258 15.036 18.7968 15.1952 18.4787L16.7917 15.2885C16.8916 15.0887 16.881 14.8514 16.7636 14.6613C16.6462 14.4712 16.4387 14.3556 16.2153 14.3556H14.0649L15.1951 12.0986C15.3544 11.7806 15.2254 11.393 14.9074 11.2337C14.5893 11.0745 14.2017 11.2034 14.0425 11.5215Z" fill="#FF7A00"/>
</svg>
