<svg width="30" height="30" viewBox="0 0 30 30" fill="none" xmlns="http://www.w3.org/2000/svg">
<path d="M16.9159 21.7267L15.7364 22.9063C15.6787 22.9642 15.6102 23.0102 15.5347 23.0415C15.4592 23.0729 15.3783 23.0891 15.2966 23.0891C15.2149 23.0891 15.1339 23.0729 15.0585 23.0415C14.983 23.0102 14.9145 22.9642 14.8568 22.9063L13.6705 21.7267C13.5873 21.6479 13.528 21.5473 13.499 21.4365C13.4701 21.3256 13.4728 21.2089 13.5068 21.0995L14.4409 17.4449C14.4703 17.3385 14.5334 17.2445 14.6206 17.1769C14.7079 17.1094 14.8146 17.0718 14.925 17.0699H15.6477C15.7587 17.0695 15.8666 17.1062 15.9543 17.1742C16.042 17.2421 16.1045 17.3374 16.1318 17.4449L17.0659 21.0995C17.1008 21.2077 17.1053 21.3235 17.0788 21.4341C17.0524 21.5447 16.996 21.646 16.9159 21.7267ZM19.1386 16.5995C18.8462 16.4979 18.5938 16.3055 18.4184 16.0504C18.243 15.7952 18.1538 15.4907 18.1636 15.1813C19.3226 14.5442 20.2367 13.5397 20.762 12.326C21.2873 11.1123 21.394 9.75831 21.0651 8.47732C20.7363 7.19634 19.9906 6.06115 18.9456 5.25055C17.9007 4.43995 16.6157 4 15.2932 4C13.9707 4 12.6857 4.43995 11.6407 5.25055C10.5957 6.06115 9.85011 7.19634 9.52126 8.47732C9.1924 9.75831 9.29902 11.1123 9.82432 12.326C10.3496 13.5397 11.2638 14.5442 12.4227 15.1813C12.4291 15.4874 12.339 15.7877 12.1653 16.0398C11.9915 16.2919 11.7429 16.4829 11.4545 16.5858C8.33182 17.6836 6 19.9949 6 22.5517V23.9154C5.99978 24.2689 6.13688 24.6087 6.38238 24.8631C6.62788 25.1175 6.96259 25.2666 7.31591 25.279H23.2636C23.6183 25.2792 23.9591 25.1411 24.2137 24.8942C24.4683 24.6472 24.6166 24.3108 24.6273 23.9563V22.5926C24.5932 20.0563 22.2341 17.7245 19.1386 16.5995Z" fill="#FF7A00"/>
</svg>
