<svg width="30" height="30" viewBox="0 0 30 30" fill="none" xmlns="http://www.w3.org/2000/svg">
<path d="M28.4686 22.827L15.8885 29.8875C15.6213 30.0375 15.2955 30.0375 15.0283 29.8875L2.44824 22.827C1.85 22.4918 1.85117 21.6287 2.44824 21.2941L5.57715 19.5381L14.1682 24.3598C14.9694 24.8099 15.9486 24.8092 16.7486 24.3598L25.3396 19.5381L28.4686 21.2941C29.0668 21.6293 29.0656 22.4924 28.4686 22.827Z" fill="#FF7A00"/>
<path d="M28.4686 14.2336L25.3396 12.4775L16.7486 17.2992C15.9488 17.7486 14.9691 17.7492 14.1682 17.2992L5.57715 12.4775L2.44824 14.2336C1.85117 14.5682 1.85 15.4312 2.44824 15.7664L15.0283 22.827C15.2955 22.977 15.6213 22.977 15.8885 22.827L28.4686 15.7664C29.0656 15.4318 29.0668 14.5688 28.4686 14.2336ZM7.68887 16.923C7.20312 16.923 6.80996 16.5293 6.80996 16.0441C6.80996 15.5584 7.20312 15.1652 7.68887 15.1652C8.17402 15.1652 8.56777 15.5584 8.56777 16.0441C8.56777 16.5293 8.17402 16.923 7.68887 16.923ZM11.4312 19.0998C10.9455 19.0998 10.5523 18.7061 10.5523 18.2209C10.5523 17.7352 10.9455 17.342 11.4312 17.342C11.9164 17.342 12.3102 17.7352 12.3102 18.2209C12.3102 18.7061 11.9164 19.0998 11.4312 19.0998ZM15.4584 21.1389C14.9732 21.1389 14.5795 20.7457 14.5795 20.26C14.5795 19.7748 14.9732 19.3811 15.4584 19.3811C15.9436 19.3811 16.3373 19.7748 16.3373 20.26C16.3373 20.7457 15.9436 21.1389 15.4584 21.1389ZM19.4855 19.0998C19.0004 19.0998 18.6066 18.7061 18.6066 18.2209C18.6066 17.7352 19.0004 17.342 19.4855 17.342C19.9713 17.342 20.3645 17.7352 20.3645 18.2209C20.3645 18.7061 19.9713 19.0998 19.4855 19.0998ZM23.2279 16.923C22.7428 16.923 22.349 16.5293 22.349 16.0441C22.349 15.5584 22.7428 15.1652 23.2279 15.1652C23.7137 15.1652 24.1068 15.5584 24.1068 16.0441C24.1068 16.5293 23.7137 16.923 23.2279 16.923Z" fill="#FF7A00"/>
<path d="M28.4686 8.70586L15.8885 15.7664C15.6212 15.9164 15.2955 15.9164 15.0283 15.7664L2.44824 8.70586C1.85 8.3707 1.85117 7.50762 2.44824 7.17305L15.0283 0.1125C15.2956 -0.0375 15.6213 -0.0375 15.8885 0.1125L28.4686 7.17305C29.0668 7.5082 29.0656 8.37129 28.4686 8.70586Z" fill="#FF7A00"/>
</svg>
